# xmcd
#
# Track frame offsets:
#   150
#   15252
#   32811
#   47098
#   60304
#   80757
#   97871
#   112127
#   130195
#   144566
#   160859
#   180275
#   195853
#   204284
#   219895
#   237358
#   251190
#   267377
#   283114
#   295318
#   309058
#   322742
#   335477
#
# Disc length: 4691 seconds
#
# Revision: 0
# Processed by: cddbd v1.5.2PL0 Copyright (c) Steve Scherf et al.
# Submitted via: uFREEDB ActiveX Control 1.5
#
DISCID=3a125117
DTITLE=09 - 009
DYEAR=1900
DGENRE=Blues
TTITLE0=91
TTITLE1=92
TTITLE2=9
TTITLE3=3
TTITLE4=94
TTITLE5=95
TTITLE6=96
TTITLE7=97
TTITLE8=98
TTITLE9=99
TTITLE10=910
TTITLE11=911
TTITLE12=912
TTITLE13=913
TTITLE14=914
TTITLE15=915
TTITLE16=916
TTITLE17=917
TTITLE18=918
TTITLE19=919
TTITLE20=920
TTITLE21=921
TTITLE22=922
EXTD=
EXTT0=
EXTT1=
EXTT2=
EXTT3=
EXTT4=
EXTT5=
EXTT6=
EXTT7=
EXTT8=
EXTT9=
EXTT10=
EXTT11=
EXTT12=
EXTT13=
EXTT14=
EXTT15=
EXTT16=
EXTT17=
EXTT18=
EXTT19=
EXTT20=
EXTT21=
EXTT22=
PLAYORDER=
